<?xml version="1.0" encoding="iso-8859-1"?>
<!-- Generator: Adobe Illustrator 19.0.0, SVG Export Plug-In . SVG Version: 6.00 Build 0)  -->
<svg version="1.1" id="Layer_1" xmlns="http://www.w3.org/2000/svg" xmlns:xlink="http://www.w3.org/1999/xlink" x="0px" y="0px"
	 viewBox="0 0 512.011 512.011" style="enable-background:new 0 0 512.011 512.011;" xml:space="preserve">
<g>
	<g>
		<g>
			<path d="M505.755,240.92l-89.088-89.088c-88.576-88.597-232.747-88.597-321.323,0L6.256,240.92
				c-8.341,8.341-8.341,21.824,0,30.165l89.088,89.088c44.288,44.288,102.464,66.453,160.661,66.453s116.373-22.165,160.661-66.453
				l89.088-89.088C514.096,262.744,514.096,249.261,505.755,240.92z M256.005,362.669c-58.816,0-106.667-47.851-106.667-106.667
				s47.851-106.667,106.667-106.667s106.667,47.851,106.667,106.667S314.821,362.669,256.005,362.669z"/>
			<path d="M256.005,192.003c-35.285,0-64,28.715-64,64s28.715,64,64,64s64-28.715,64-64S291.291,192.003,256.005,192.003z"/>
		</g>
	</g>
</g>
<g>
</g>
<g>
</g>
<g>
</g>
<g>
</g>
<g>
</g>
<g>
</g>
<g>
</g>
<g>
</g>
<g>
</g>
<g>
</g>
<g>
</g>
<g>
</g>
<g>
</g>
<g>
</g>
<g>
</g>
</svg>
