<svg id="svg" version="1.1" xmlns="http://www.w3.org/2000/svg" xmlns:xlink="http://www.w3.org/1999/xlink" width="400" height="400" viewBox="0, 0, 400,400"><g id="svgg"><path id="path0" d="M246.402 58.866 C 214.392 90.950,187.977 117.200,187.701 117.200 C 187.111 117.200,0.400 303.811,0.400 304.401 C 0.400 304.859,95.444 400.000,95.902 400.000 C 96.066 400.000,122.391 373.810,154.400 341.800 C 186.409 309.790,212.824 283.600,213.100 283.600 C 213.980 283.600,400.000 97.282,400.000 96.401 C 400.000 95.738,305.101 0.206,304.701 0.466 C 304.646 0.502,278.411 26.782,246.402 58.866 " stroke="none" fill="#0c745c" fill-rule="evenodd"></path><path id="path1" d="M0.000 58.600 L 0.000 117.200 93.897 117.200 L 187.793 117.200 245.721 59.300 C 277.582 27.455,303.825 1.085,304.039 0.700 C 304.409 0.034,297.062 -0.000,152.214 -0.000 L 0.000 0.000 0.000 58.600 M154.803 341.800 L 96.600 399.999 248.300 400.000 L 400.000 400.000 400.000 341.800 L 400.000 283.600 306.503 283.600 L 213.006 283.600 154.803 341.800 " stroke="none" fill="#0c443c" fill-rule="evenodd"></path><path id="path2" d="M245.998 58.900 C 213.987 90.965,187.887 117.200,187.999 117.200 C 188.327 117.200,304.584 0.844,304.383 0.716 C 304.282 0.652,278.009 26.835,245.998 58.900 M154.399 341.900 L 96.200 400.200 154.584 342.000 C 186.695 309.990,213.050 283.755,213.150 283.700 C 213.251 283.645,213.168 283.600,212.966 283.600 C 212.764 283.600,186.409 309.835,154.399 341.900 " stroke="none" fill="#0c6860" fill-rule="evenodd"></path><path id="path3" d="M245.998 58.900 C 213.987 90.965,187.887 117.200,187.999 117.200 C 188.327 117.200,304.584 0.844,304.383 0.716 C 304.282 0.652,278.009 26.835,245.998 58.900 M154.399 341.900 L 96.200 400.200 154.584 342.000 C 186.695 309.990,213.050 283.755,213.150 283.700 C 213.251 283.645,213.168 283.600,212.966 283.600 C 212.764 283.600,186.409 309.835,154.399 341.900 " stroke="none" fill="#0c6860" fill-rule="evenodd"></path><path id="path4" d="M245.998 58.900 C 213.987 90.965,187.887 117.200,187.999 117.200 C 188.327 117.200,304.584 0.844,304.383 0.716 C 304.282 0.652,278.009 26.835,245.998 58.900 M154.399 341.900 L 96.200 400.200 154.584 342.000 C 186.695 309.990,213.050 283.755,213.150 283.700 C 213.251 283.645,213.168 283.600,212.966 283.600 C 212.764 283.600,186.409 309.835,154.399 341.900 " stroke="none" fill="#0c6860" fill-rule="evenodd"></path></g></svg>