<svg id="svg" version="1.1" xmlns="http://www.w3.org/2000/svg" xmlns:xlink="http://www.w3.org/1999/xlink" width="400" height="94.33962264150944" viewBox="0, 0, 400,94.33962264150944"><g id="svgg"><path id="path0" d="M115.316 13.480 C 107.901 20.894,101.833 27.032,101.833 27.119 C 101.833 27.285,132.443 27.500,156.111 27.500 L 168.833 27.500 168.833 13.750 L 168.833 0.000 148.816 0.000 L 128.799 0.000 115.316 13.480 M169.548 0.383 C 169.751 0.594,169.947 0.745,169.985 0.718 C 170.082 0.648,169.476 0.000,169.313 0.000 C 169.239 0.000,169.345 0.173,169.548 0.383 M270.516 47.167 L 270.448 94.333 284.308 94.333 L 298.167 94.333 298.167 60.835 L 298.167 27.337 284.495 13.668 C 276.975 6.151,270.769 0.000,270.703 0.000 C 270.637 0.000,270.553 21.225,270.516 47.167 M319.291 13.292 C 311.982 20.602,305.892 26.743,305.756 26.938 L 305.510 27.292 333.380 27.408 C 348.708 27.471,363.800 27.499,366.917 27.470 L 372.583 27.417 372.626 13.708 L 372.669 0.000 352.624 0.000 L 332.579 0.000 319.291 13.292 M58.160 13.923 C 50.602 21.482,44.358 27.667,44.284 27.667 C 44.053 27.667,0.138 71.665,0.196 71.838 C 0.239 71.967,18.344 90.163,21.891 93.642 L 22.631 94.368 36.357 80.704 C 43.907 73.189,60.078 57.075,72.293 44.895 L 94.503 22.749 83.244 11.499 C 77.052 5.312,71.967 0.234,71.944 0.215 C 71.921 0.196,65.718 6.365,58.160 13.923 M231.333 19.277 L 231.333 38.388 241.042 48.107 C 246.381 53.452,250.809 57.807,250.882 57.785 C 251.077 57.726,269.833 38.954,269.833 38.818 C 269.833 38.754,265.558 34.426,260.333 29.199 C 255.108 23.972,250.833 19.638,250.833 19.567 C 250.833 19.403,231.626 0.174,231.458 0.170 C 231.390 0.168,231.333 8.766,231.333 19.277 M377.083 4.167 C 379.007 6.092,380.618 7.667,380.664 7.667 C 380.710 7.667,379.173 6.092,377.250 4.167 C 375.327 2.242,373.715 0.667,373.670 0.667 C 373.624 0.667,375.160 2.242,377.083 4.167 M170.978 1.816 C 171.219 2.082,171.448 2.269,171.487 2.232 C 171.574 2.149,170.820 1.333,170.657 1.333 C 170.592 1.333,170.736 1.551,170.978 1.816 M172.000 2.713 C 172.000 2.771,172.188 3.006,172.417 3.235 C 172.646 3.464,172.833 3.593,172.833 3.521 C 172.833 3.450,172.646 3.215,172.417 3.000 C 172.188 2.785,172.000 2.656,172.000 2.713 M173.841 4.623 C 174.053 4.920,174.265 5.124,174.313 5.076 C 174.360 5.029,174.187 4.786,173.928 4.537 L 173.456 4.083 173.841 4.623 M174.833 5.545 C 174.833 5.697,175.689 6.533,175.766 6.456 C 175.801 6.421,175.606 6.178,175.332 5.915 C 175.058 5.652,174.833 5.486,174.833 5.545 M176.333 7.047 C 176.333 7.104,176.521 7.339,176.750 7.568 C 176.979 7.797,177.167 7.926,177.167 7.855 C 177.167 7.783,176.979 7.549,176.750 7.333 C 176.521 7.118,176.333 6.989,176.333 7.047 M382.083 9.167 C 382.812 9.900,383.446 10.500,383.492 10.500 C 383.538 10.500,382.979 9.900,382.250 9.167 C 381.521 8.433,380.887 7.833,380.841 7.833 C 380.795 7.833,381.354 8.433,382.083 9.167 M178.098 8.917 C 178.328 9.146,178.562 9.333,178.620 9.333 C 178.678 9.333,178.549 9.146,178.333 8.917 C 178.118 8.688,177.883 8.500,177.812 8.500 C 177.740 8.500,177.869 8.688,178.098 8.917 M179.167 9.880 C 179.167 9.938,179.354 10.172,179.583 10.402 C 179.813 10.631,180.000 10.760,180.000 10.688 C 180.000 10.617,179.813 10.382,179.583 10.167 C 179.354 9.951,179.167 9.822,179.167 9.880 M385.667 12.750 C 386.810 13.896,387.782 14.833,387.828 14.833 C 387.874 14.833,386.976 13.896,385.833 12.750 C 384.690 11.604,383.718 10.667,383.672 10.667 C 383.626 10.667,384.524 11.604,385.667 12.750 M180.978 11.816 C 181.219 12.082,181.448 12.269,181.487 12.232 C 181.574 12.149,180.820 11.333,180.657 11.333 C 180.592 11.333,180.736 11.551,180.978 11.816 M182.000 12.713 C 182.000 12.771,182.188 13.006,182.417 13.235 C 182.646 13.464,182.833 13.593,182.833 13.521 C 182.833 13.450,182.646 13.215,182.417 13.000 C 182.188 12.785,182.000 12.656,182.000 12.713 M183.848 14.603 C 184.069 14.889,184.284 15.093,184.324 15.056 C 184.365 15.020,184.184 14.786,183.922 14.537 L 183.445 14.083 183.848 14.603 M389.250 16.333 C 389.979 17.067,390.613 17.667,390.659 17.667 C 390.705 17.667,390.146 17.067,389.417 16.333 C 388.688 15.600,388.054 15.000,388.008 15.000 C 387.962 15.000,388.521 15.600,389.250 16.333 M184.833 15.545 C 184.833 15.697,185.689 16.533,185.766 16.456 C 185.801 16.421,185.606 16.178,185.332 15.915 C 185.058 15.652,184.833 15.486,184.833 15.545 M186.333 17.047 C 186.333 17.104,186.521 17.339,186.750 17.568 C 186.979 17.797,187.167 17.926,187.167 17.855 C 187.167 17.783,186.979 17.549,186.750 17.333 C 186.521 17.118,186.333 16.989,186.333 17.047 M392.083 19.167 C 392.812 19.900,393.446 20.500,393.492 20.500 C 393.538 20.500,392.979 19.900,392.250 19.167 C 391.521 18.433,390.887 17.833,390.841 17.833 C 390.795 17.833,391.354 18.433,392.083 19.167 M188.098 18.917 C 188.328 19.146,188.562 19.333,188.620 19.333 C 188.678 19.333,188.549 19.146,188.333 18.917 C 188.118 18.688,187.883 18.500,187.812 18.500 C 187.740 18.500,187.869 18.688,188.098 18.917 M189.167 19.880 C 189.167 19.938,189.354 20.172,189.583 20.402 C 189.813 20.631,190.000 20.760,190.000 20.688 C 190.000 20.617,189.813 20.382,189.583 20.167 C 189.354 19.951,189.167 19.822,189.167 19.880 M395.667 22.750 C 396.810 23.896,397.782 24.833,397.828 24.833 C 397.874 24.833,396.976 23.896,395.833 22.750 C 394.690 21.604,393.718 20.667,393.672 20.667 C 393.626 20.667,394.524 21.604,395.667 22.750 M190.978 21.816 C 191.219 22.082,191.448 22.269,191.487 22.232 C 191.574 22.149,190.820 21.333,190.657 21.333 C 190.592 21.333,190.736 21.551,190.978 21.816 M192.000 22.711 C 192.000 22.863,192.856 23.700,192.933 23.623 C 192.968 23.588,192.772 23.344,192.498 23.082 C 192.224 22.819,192.000 22.652,192.000 22.711 M193.848 24.603 C 194.069 24.889,194.284 25.093,194.324 25.056 C 194.365 25.020,194.184 24.786,193.922 24.537 L 193.445 24.083 193.848 24.603 M398.917 26.000 C 399.461 26.550,399.944 27.000,399.990 27.000 C 400.035 27.000,399.628 26.550,399.083 26.000 C 398.539 25.450,398.056 25.000,398.010 25.000 C 397.965 25.000,398.372 25.450,398.917 26.000 M194.833 25.545 C 194.833 25.697,195.689 26.533,195.766 26.456 C 195.801 26.421,195.606 26.178,195.332 25.915 C 195.058 25.652,194.833 25.486,194.833 25.545 M333.333 68.750 L 333.333 82.500 353.194 82.500 L 373.054 82.500 386.527 69.027 C 393.937 61.618,400.000 55.480,400.000 55.388 C 400.000 55.213,370.407 55.000,346.139 55.000 L 333.333 55.000 333.333 68.750 M115.708 66.958 L 101.833 67.002 101.833 80.668 L 101.833 94.333 135.574 94.333 L 169.316 94.333 182.824 80.831 C 190.254 73.405,196.333 67.267,196.333 67.192 C 196.333 67.029,160.337 66.817,142.333 66.874 C 135.321 66.896,123.340 66.934,115.708 66.958 " stroke="none" fill="#0c745c" fill-rule="evenodd"></path><path id="path1" d="M0.000 13.833 L 0.000 27.667 22.125 27.667 L 44.251 27.667 58.083 13.833 L 71.916 0.000 35.958 0.000 L 0.000 0.000 0.000 13.833 M168.833 33.500 L 168.833 67.000 182.583 67.000 L 196.333 67.000 196.333 47.088 L 196.333 27.176 182.734 13.588 C 175.254 6.115,169.067 0.000,168.984 0.000 C 168.895 0.000,168.833 13.688,168.833 33.500 M217.356 13.682 L 203.667 27.363 203.667 60.848 L 203.667 94.333 217.499 94.333 L 231.331 94.333 231.374 66.375 C 231.434 27.242,231.358 0.000,231.188 0.000 C 231.110 0.000,224.885 6.157,217.356 13.682 M372.667 6.875 C 372.667 10.656,372.617 23.031,372.556 34.375 L 372.445 55.000 386.222 55.000 L 400.000 55.000 400.000 41.042 L 400.000 27.083 386.457 13.542 C 379.008 6.094,372.858 0.000,372.790 0.000 C 372.722 0.000,372.667 3.094,372.667 6.875 M260.642 9.834 C 255.324 15.151,250.998 19.576,251.028 19.666 C 251.254 20.337,270.079 38.791,270.274 38.533 C 270.495 38.242,270.625 0.167,270.405 0.167 C 270.353 0.167,265.959 4.517,260.642 9.834 M101.833 47.167 L 101.833 67.000 115.667 67.000 L 129.500 67.000 129.500 47.167 L 129.500 27.333 115.667 27.333 L 101.833 27.333 101.833 47.167 M305.500 60.833 L 305.500 94.333 319.375 94.333 L 333.250 94.333 333.282 60.833 L 333.313 27.333 319.407 27.333 L 305.500 27.333 305.500 60.833 M36.502 80.583 L 22.750 94.333 58.625 94.333 L 94.500 94.333 94.500 80.583 L 94.500 66.833 72.377 66.833 L 50.254 66.833 36.502 80.583 " stroke="none" fill="#0c443c" fill-rule="evenodd"></path><path id="path2" d="M58.000 13.958 L 44.250 27.750 58.042 14.000 C 65.627 6.438,71.833 0.232,71.833 0.209 C 71.833 0.092,70.782 1.137,58.000 13.958 M270.581 19.167 C 270.581 29.662,270.601 33.956,270.625 28.708 C 270.649 23.460,270.649 14.873,270.625 9.625 C 270.601 4.377,270.581 8.671,270.581 19.167 M253.333 22.250 C 253.644 22.571,253.936 22.833,253.982 22.833 C 254.028 22.833,253.811 22.571,253.500 22.250 C 253.189 21.929,252.897 21.667,252.851 21.667 C 252.805 21.667,253.022 21.929,253.333 22.250 M254.333 23.219 C 254.333 23.248,254.577 23.491,254.875 23.760 L 255.417 24.250 254.927 23.708 C 254.471 23.203,254.333 23.090,254.333 23.219 M256.167 25.083 C 256.478 25.404,256.770 25.667,256.815 25.667 C 256.861 25.667,256.644 25.404,256.333 25.083 C 256.022 24.762,255.730 24.500,255.685 24.500 C 255.639 24.500,255.856 24.762,256.167 25.083 M258.667 27.552 C 258.667 27.581,258.910 27.825,259.208 28.094 L 259.750 28.583 259.260 28.042 C 258.804 27.537,258.667 27.423,258.667 27.552 M260.000 28.885 C 260.000 28.914,260.244 29.158,260.542 29.427 L 261.083 29.917 260.594 29.375 C 260.138 28.870,260.000 28.757,260.000 28.885 M263.333 32.250 C 263.644 32.571,263.936 32.833,263.982 32.833 C 264.028 32.833,263.811 32.571,263.500 32.250 C 263.189 31.929,262.897 31.667,262.851 31.667 C 262.805 31.667,263.022 31.929,263.333 32.250 M264.333 33.219 C 264.333 33.248,264.577 33.491,264.875 33.760 L 265.417 34.250 264.927 33.708 C 264.471 33.203,264.333 33.090,264.333 33.219 M266.167 35.083 C 266.478 35.404,266.770 35.667,266.815 35.667 C 266.861 35.667,266.644 35.404,266.333 35.083 C 266.022 34.762,265.730 34.500,265.685 34.500 C 265.639 34.500,265.856 34.762,266.167 35.083 M268.667 37.552 C 268.667 37.581,268.910 37.825,269.208 38.094 L 269.750 38.583 269.260 38.042 C 268.804 37.537,268.667 37.423,268.667 37.552 M333.246 68.750 C 333.246 76.358,333.267 79.495,333.292 75.721 C 333.317 71.946,333.317 65.721,333.292 61.887 C 333.267 58.054,333.246 61.142,333.246 68.750 M379.458 55.125 C 383.240 55.150,389.427 55.150,393.208 55.125 C 396.990 55.100,393.896 55.080,386.333 55.080 C 378.771 55.080,375.677 55.100,379.458 55.125 " stroke="none" fill="#0c6860" fill-rule="evenodd"></path><path id="path3" d="M58.000 13.958 L 44.250 27.750 58.042 14.000 C 65.627 6.438,71.833 0.232,71.833 0.209 C 71.833 0.092,70.782 1.137,58.000 13.958 M270.581 19.167 C 270.581 29.662,270.601 33.956,270.625 28.708 C 270.649 23.460,270.649 14.873,270.625 9.625 C 270.601 4.377,270.581 8.671,270.581 19.167 M253.333 22.250 C 253.644 22.571,253.936 22.833,253.982 22.833 C 254.028 22.833,253.811 22.571,253.500 22.250 C 253.189 21.929,252.897 21.667,252.851 21.667 C 252.805 21.667,253.022 21.929,253.333 22.250 M254.333 23.219 C 254.333 23.248,254.577 23.491,254.875 23.760 L 255.417 24.250 254.927 23.708 C 254.471 23.203,254.333 23.090,254.333 23.219 M256.167 25.083 C 256.478 25.404,256.770 25.667,256.815 25.667 C 256.861 25.667,256.644 25.404,256.333 25.083 C 256.022 24.762,255.730 24.500,255.685 24.500 C 255.639 24.500,255.856 24.762,256.167 25.083 M258.667 27.552 C 258.667 27.581,258.910 27.825,259.208 28.094 L 259.750 28.583 259.260 28.042 C 258.804 27.537,258.667 27.423,258.667 27.552 M260.000 28.885 C 260.000 28.914,260.244 29.158,260.542 29.427 L 261.083 29.917 260.594 29.375 C 260.138 28.870,260.000 28.757,260.000 28.885 M263.333 32.250 C 263.644 32.571,263.936 32.833,263.982 32.833 C 264.028 32.833,263.811 32.571,263.500 32.250 C 263.189 31.929,262.897 31.667,262.851 31.667 C 262.805 31.667,263.022 31.929,263.333 32.250 M264.333 33.219 C 264.333 33.248,264.577 33.491,264.875 33.760 L 265.417 34.250 264.927 33.708 C 264.471 33.203,264.333 33.090,264.333 33.219 M266.167 35.083 C 266.478 35.404,266.770 35.667,266.815 35.667 C 266.861 35.667,266.644 35.404,266.333 35.083 C 266.022 34.762,265.730 34.500,265.685 34.500 C 265.639 34.500,265.856 34.762,266.167 35.083 M268.667 37.552 C 268.667 37.581,268.910 37.825,269.208 38.094 L 269.750 38.583 269.260 38.042 C 268.804 37.537,268.667 37.423,268.667 37.552 M333.246 68.750 C 333.246 76.358,333.267 79.495,333.292 75.721 C 333.317 71.946,333.317 65.721,333.292 61.887 C 333.267 58.054,333.246 61.142,333.246 68.750 M379.458 55.125 C 383.240 55.150,389.427 55.150,393.208 55.125 C 396.990 55.100,393.896 55.080,386.333 55.080 C 378.771 55.080,375.677 55.100,379.458 55.125 " stroke="none" fill="#0c6860" fill-rule="evenodd"></path><path id="path4" d="M58.000 13.958 L 44.250 27.750 58.042 14.000 C 65.627 6.438,71.833 0.232,71.833 0.209 C 71.833 0.092,70.782 1.137,58.000 13.958 M270.581 19.167 C 270.581 29.662,270.601 33.956,270.625 28.708 C 270.649 23.460,270.649 14.873,270.625 9.625 C 270.601 4.377,270.581 8.671,270.581 19.167 M253.333 22.250 C 253.644 22.571,253.936 22.833,253.982 22.833 C 254.028 22.833,253.811 22.571,253.500 22.250 C 253.189 21.929,252.897 21.667,252.851 21.667 C 252.805 21.667,253.022 21.929,253.333 22.250 M254.333 23.219 C 254.333 23.248,254.577 23.491,254.875 23.760 L 255.417 24.250 254.927 23.708 C 254.471 23.203,254.333 23.090,254.333 23.219 M256.167 25.083 C 256.478 25.404,256.770 25.667,256.815 25.667 C 256.861 25.667,256.644 25.404,256.333 25.083 C 256.022 24.762,255.730 24.500,255.685 24.500 C 255.639 24.500,255.856 24.762,256.167 25.083 M258.667 27.552 C 258.667 27.581,258.910 27.825,259.208 28.094 L 259.750 28.583 259.260 28.042 C 258.804 27.537,258.667 27.423,258.667 27.552 M260.000 28.885 C 260.000 28.914,260.244 29.158,260.542 29.427 L 261.083 29.917 260.594 29.375 C 260.138 28.870,260.000 28.757,260.000 28.885 M263.333 32.250 C 263.644 32.571,263.936 32.833,263.982 32.833 C 264.028 32.833,263.811 32.571,263.500 32.250 C 263.189 31.929,262.897 31.667,262.851 31.667 C 262.805 31.667,263.022 31.929,263.333 32.250 M264.333 33.219 C 264.333 33.248,264.577 33.491,264.875 33.760 L 265.417 34.250 264.927 33.708 C 264.471 33.203,264.333 33.090,264.333 33.219 M266.167 35.083 C 266.478 35.404,266.770 35.667,266.815 35.667 C 266.861 35.667,266.644 35.404,266.333 35.083 C 266.022 34.762,265.730 34.500,265.685 34.500 C 265.639 34.500,265.856 34.762,266.167 35.083 M268.667 37.552 C 268.667 37.581,268.910 37.825,269.208 38.094 L 269.750 38.583 269.260 38.042 C 268.804 37.537,268.667 37.423,268.667 37.552 M333.246 68.750 C 333.246 76.358,333.267 79.495,333.292 75.721 C 333.317 71.946,333.317 65.721,333.292 61.887 C 333.267 58.054,333.246 61.142,333.246 68.750 M379.458 55.125 C 383.240 55.150,389.427 55.150,393.208 55.125 C 396.990 55.100,393.896 55.080,386.333 55.080 C 378.771 55.080,375.677 55.100,379.458 55.125 " stroke="none" fill="#0c6860" fill-rule="evenodd"></path></g></svg>