<svg id="svg" version="1.1" xmlns="http://www.w3.org/2000/svg" xmlns:xlink="http://www.w3.org/1999/xlink" width="400" height="94.33962264150944" viewBox="0, 0, 400,94.33962264150944"><g id="svgg"><path id="path0" d="M0.000 13.833 L 0.000 27.667 22.087 27.667 L 44.173 27.667 58.004 13.833 L 71.835 -0.000 35.917 -0.000 L 0.000 0.000 0.000 13.833 M168.944 20.625 C 168.883 31.969,168.833 47.006,168.833 54.042 L 168.833 66.833 182.583 66.833 L 196.333 66.833 196.333 46.957 C 196.333 27.135,196.332 27.080,195.994 26.868 C 195.807 26.751,195.691 26.595,195.738 26.520 C 195.784 26.445,195.599 26.171,195.327 25.911 C 195.056 25.651,194.833 25.495,194.833 25.564 C 194.833 25.634,194.721 25.578,194.583 25.440 C 194.446 25.303,194.333 25.123,194.333 25.041 C 194.333 24.864,193.618 24.167,193.436 24.167 C 193.260 24.167,192.833 23.722,192.923 23.633 C 192.963 23.592,192.772 23.344,192.498 23.082 C 192.224 22.819,192.000 22.667,192.000 22.744 C 192.000 22.821,191.776 22.575,191.503 22.198 C 191.230 21.821,190.780 21.395,190.503 21.252 C 190.226 21.109,190.000 20.894,190.000 20.775 C 190.000 20.547,189.343 19.856,189.119 19.849 C 188.950 19.844,188.436 19.333,188.600 19.333 C 188.669 19.333,188.549 19.146,188.333 18.917 C 188.118 18.688,187.850 18.500,187.737 18.500 C 187.625 18.500,187.378 18.238,187.190 17.918 C 187.001 17.598,186.600 17.186,186.298 17.003 C 185.997 16.820,185.776 16.624,185.808 16.569 C 185.897 16.414,184.967 15.501,184.815 15.595 C 184.741 15.640,184.573 15.469,184.441 15.213 C 184.309 14.958,184.024 14.600,183.809 14.417 C 183.418 14.087,183.418 14.087,183.824 14.585 C 184.088 14.907,183.987 14.847,183.541 14.417 C 183.161 14.050,182.846 13.669,182.842 13.571 C 182.832 13.353,182.123 12.667,181.906 12.666 C 181.820 12.665,181.622 12.439,181.465 12.164 C 181.309 11.889,180.915 11.507,180.590 11.315 C 180.266 11.124,180.000 10.875,180.000 10.763 C 180.000 10.544,179.313 9.833,179.102 9.833 C 179.033 9.833,178.864 9.721,178.726 9.583 C 178.589 9.446,178.532 9.333,178.600 9.333 C 178.669 9.333,178.549 9.146,178.333 8.917 C 178.118 8.688,177.845 8.500,177.727 8.500 C 177.609 8.500,177.425 8.331,177.318 8.125 C 177.047 7.599,176.475 6.996,176.331 7.085 C 176.265 7.125,176.077 7.011,175.913 6.829 C 175.749 6.648,175.678 6.500,175.755 6.500 C 175.959 6.500,174.971 5.501,174.760 5.494 C 174.663 5.490,174.433 5.253,174.250 4.966 C 174.067 4.680,173.770 4.364,173.590 4.264 C 173.143 4.016,172.833 3.720,172.833 3.541 C 172.833 3.272,172.001 2.583,171.993 2.846 C 171.990 2.977,171.868 2.858,171.723 2.583 C 171.409 1.988,170.835 1.333,170.626 1.333 C 170.431 1.333,170.000 0.901,170.000 0.704 C 170.000 0.507,169.441 -0.000,169.223 -0.000 C 169.112 -0.000,169.018 6.978,168.944 20.625 M230.533 0.571 C 230.257 0.885,229.993 1.104,229.946 1.057 C 229.899 1.010,229.767 1.145,229.654 1.358 C 229.540 1.570,229.284 1.872,229.085 2.028 C 228.421 2.551,224.500 6.546,224.500 6.701 C 224.500 6.785,224.430 6.810,224.345 6.757 C 224.144 6.633,223.648 7.335,223.783 7.553 C 223.839 7.644,223.809 7.671,223.715 7.613 C 223.511 7.487,217.471 13.485,217.598 13.690 C 217.646 13.769,217.532 13.833,217.343 13.833 C 217.154 13.833,217.000 13.902,217.000 13.986 C 217.000 14.071,216.733 14.389,216.406 14.695 C 214.628 16.358,213.679 17.385,213.776 17.542 C 213.836 17.639,213.811 17.672,213.720 17.616 C 213.513 17.488,207.667 23.274,207.667 23.608 C 207.667 23.743,207.595 23.809,207.507 23.754 C 207.419 23.700,206.519 24.499,205.507 25.531 L 203.667 27.406 203.667 60.870 L 203.667 94.333 217.499 94.333 L 231.331 94.333 231.374 66.333 C 231.397 50.933,231.360 38.333,231.290 38.333 C 231.221 38.333,231.183 29.708,231.207 19.167 C 231.231 8.625,231.202 -0.000,231.142 -0.000 C 231.083 -0.000,230.809 0.257,230.533 0.571 M372.667 6.875 C 372.667 10.656,372.617 23.031,372.556 34.375 L 372.445 55.000 386.222 55.000 L 400.000 55.000 400.000 40.937 C 400.000 26.614,399.980 26.116,399.416 26.626 C 399.341 26.694,399.327 26.667,399.385 26.566 C 399.496 26.371,398.788 25.601,398.636 25.753 C 398.587 25.801,398.443 25.708,398.315 25.546 C 398.101 25.272,398.108 25.268,398.417 25.487 C 398.600 25.618,398.525 25.496,398.250 25.216 C 397.975 24.937,397.692 24.742,397.621 24.783 C 397.550 24.824,397.512 24.759,397.538 24.637 C 397.563 24.516,397.484 24.437,397.363 24.462 C 397.241 24.488,397.184 24.440,397.236 24.356 C 397.323 24.216,396.854 23.698,396.724 23.792 C 396.693 23.815,396.661 23.777,396.655 23.708 C 396.632 23.466,396.120 23.009,395.974 23.100 C 395.892 23.150,395.846 23.092,395.871 22.971 C 395.896 22.849,395.817 22.771,395.696 22.796 C 395.575 22.821,395.516 22.776,395.566 22.695 C 395.669 22.527,394.938 21.784,394.803 21.919 C 394.754 21.968,394.610 21.875,394.482 21.712 C 394.266 21.438,394.274 21.434,394.583 21.664 C 394.913 21.908,394.913 21.906,394.603 21.543 C 394.430 21.340,394.205 21.222,394.103 21.281 C 394.000 21.339,393.972 21.326,394.040 21.251 C 394.181 21.095,391.841 18.643,391.658 18.755 C 391.592 18.796,391.436 18.699,391.311 18.540 C 391.101 18.273,391.109 18.269,391.417 18.490 C 391.600 18.623,391.386 18.360,390.942 17.907 C 390.497 17.454,390.047 17.080,389.942 17.076 C 389.836 17.072,389.765 16.989,389.783 16.893 C 389.801 16.797,389.509 16.425,389.134 16.067 C 388.758 15.709,388.512 15.529,388.586 15.667 C 388.665 15.815,388.658 15.860,388.568 15.778 C 388.485 15.701,388.417 15.580,388.417 15.509 C 388.417 15.283,386.293 13.181,386.101 13.216 C 385.999 13.235,385.932 13.167,385.950 13.066 C 385.988 12.858,385.004 11.853,384.750 11.841 C 384.658 11.837,384.583 11.762,384.583 11.675 C 384.583 11.435,383.110 10.016,382.958 10.109 C 382.885 10.155,382.846 10.096,382.871 9.978 C 382.896 9.861,382.823 9.762,382.708 9.758 C 382.594 9.753,382.519 9.700,382.542 9.638 C 382.604 9.470,381.804 8.665,381.661 8.753 C 381.593 8.795,381.436 8.699,381.311 8.540 C 381.101 8.272,381.109 8.269,381.417 8.495 C 381.663 8.676,381.644 8.621,381.346 8.287 C 381.124 8.037,380.830 7.833,380.693 7.833 C 380.556 7.833,380.495 7.783,380.556 7.722 C 380.719 7.559,380.153 6.989,379.952 7.113 C 379.858 7.171,379.830 7.140,379.889 7.045 C 380.023 6.829,379.603 6.457,379.416 6.626 C 379.341 6.694,379.326 6.668,379.383 6.569 C 379.514 6.338,378.277 5.116,378.088 5.288 C 378.010 5.359,377.994 5.334,378.051 5.233 C 378.180 5.007,377.443 4.280,377.265 4.457 C 377.196 4.526,377.164 4.474,377.194 4.341 C 377.225 4.208,377.156 4.095,377.042 4.091 C 376.927 4.087,376.829 4.008,376.823 3.917 C 376.807 3.648,376.132 3.002,375.972 3.101 C 375.891 3.151,375.846 3.092,375.871 2.971 C 375.896 2.849,375.817 2.771,375.696 2.796 C 375.575 2.821,375.516 2.776,375.565 2.696 C 375.660 2.543,374.777 1.613,374.585 1.664 C 374.523 1.681,374.422 1.639,374.361 1.571 C 374.300 1.502,374.363 1.507,374.500 1.580 C 374.637 1.653,374.375 1.330,373.917 0.860 C 372.593 -0.495,372.667 -0.849,372.667 6.875 M260.695 9.800 C 253.634 16.857,251.019 19.572,251.140 19.717 C 251.232 19.827,255.474 24.079,260.568 29.167 C 265.661 34.254,269.830 38.510,269.831 38.625 C 269.832 38.740,269.896 38.833,269.972 38.833 C 270.487 38.833,270.506 38.063,270.461 19.083 L 270.417 0.083 260.695 9.800 M101.833 47.167 L 101.833 66.833 115.667 66.833 L 129.500 66.833 129.500 47.167 L 129.500 27.500 115.667 27.500 L 101.833 27.500 101.833 47.167 M305.500 60.917 L 305.500 94.333 319.375 94.333 L 333.250 94.333 333.281 60.917 L 333.313 27.500 319.406 27.500 L 305.500 27.500 305.500 60.917 M36.749 80.507 C 29.233 88.027,23.052 94.214,23.014 94.257 C 22.976 94.299,39.044 94.333,58.722 94.333 L 94.500 94.333 94.500 80.583 L 94.500 66.833 72.457 66.833 L 50.414 66.833 36.749 80.507 " stroke="none" fill="#e4f4f4" fill-rule="evenodd"></path><path id="path1" d="M115.333 13.625 L 101.750 27.250 117.417 27.351 C 126.033 27.407,141.127 27.463,150.958 27.476 L 168.833 27.500 168.833 13.750 L 168.833 0.000 148.875 0.000 L 128.917 0.001 115.333 13.625 M270.516 47.167 L 270.448 94.333 284.308 94.333 L 298.167 94.333 298.167 60.831 L 298.167 27.328 284.487 13.664 C 276.964 6.149,270.757 0.000,270.696 0.000 C 270.634 0.000,270.553 21.225,270.516 47.167 M319.148 13.590 C 311.670 21.064,305.600 27.209,305.658 27.245 C 305.716 27.281,320.780 27.365,339.132 27.431 L 372.500 27.552 372.500 13.776 L 372.500 0.000 352.622 0.000 L 332.744 0.000 319.148 13.590 M58.053 13.966 C 17.528 54.297,0.146 71.687,0.199 71.847 C 0.283 72.099,12.693 84.500,12.861 84.500 C 12.938 84.500,13.000 84.558,13.000 84.630 C 13.000 84.817,15.494 87.333,15.679 87.333 C 15.764 87.333,15.833 87.398,15.833 87.476 C 15.833 87.652,22.454 94.251,22.626 94.248 C 22.694 94.247,28.922 88.097,36.466 80.581 C 83.882 33.343,94.332 22.898,94.333 22.744 C 94.333 22.555,92.015 20.139,90.865 19.130 C 90.470 18.784,90.175 18.500,90.211 18.500 C 90.260 18.500,72.157 0.376,71.948 0.216 C 71.924 0.197,65.671 6.384,58.053 13.966 M231.333 19.273 L 231.333 38.380 241.089 48.136 L 250.844 57.892 260.338 48.404 C 265.561 43.186,269.833 38.876,269.833 38.826 C 269.833 38.776,265.558 34.464,260.333 29.244 C 255.108 24.024,250.833 19.685,250.833 19.603 C 250.833 19.438,231.601 0.167,231.436 0.167 C 231.380 0.167,231.333 8.765,231.333 19.273 M333.333 68.750 L 333.333 82.500 353.182 82.500 L 373.030 82.500 386.515 69.016 C 393.932 61.599,400.000 55.462,400.000 55.376 C 400.000 55.215,369.207 55.000,346.042 55.000 L 333.333 55.000 333.333 68.750 M115.708 66.958 L 101.833 67.002 101.833 80.668 L 101.833 94.333 135.565 94.333 L 169.297 94.333 182.815 80.828 C 190.250 73.400,196.333 67.262,196.333 67.189 C 196.333 67.028,160.178 66.817,142.333 66.874 C 135.321 66.896,123.340 66.934,115.708 66.958 " stroke="none" fill="#bcecdc" fill-rule="evenodd"></path><path id="path2" d="M372.580 13.667 C 372.580 21.229,372.600 24.323,372.625 20.542 C 372.650 16.760,372.650 10.573,372.625 6.792 C 372.600 3.010,372.580 6.104,372.580 13.667 M270.581 19.167 C 270.581 29.662,270.601 33.956,270.625 28.708 C 270.649 23.460,270.649 14.873,270.625 9.625 C 270.601 4.377,270.581 8.671,270.581 19.167 M70.158 1.792 L 69.583 2.417 70.208 1.842 C 70.790 1.308,70.910 1.167,70.783 1.167 C 70.755 1.167,70.474 1.448,70.158 1.792 M65.917 6.000 C 63.993 7.925,62.457 9.500,62.503 9.500 C 62.549 9.500,64.160 7.925,66.083 6.000 C 68.007 4.075,69.543 2.500,69.497 2.500 C 69.451 2.500,67.840 4.075,65.917 6.000 M61.658 10.292 L 61.083 10.917 61.708 10.342 C 62.052 10.026,62.333 9.745,62.333 9.717 C 62.333 9.590,62.192 9.710,61.658 10.292 M56.582 15.375 L 52.417 19.583 56.625 15.418 C 60.536 11.547,60.908 11.167,60.790 11.167 C 60.767 11.167,58.873 13.060,56.582 15.375 M250.833 19.598 C 250.833 19.683,252.840 21.739,255.292 24.168 L 259.750 28.583 255.333 24.090 C 252.904 21.618,250.898 19.562,250.875 19.520 C 250.852 19.479,250.833 19.514,250.833 19.598 M51.658 20.292 L 51.083 20.917 51.708 20.342 C 52.052 20.026,52.333 19.745,52.333 19.717 C 52.333 19.590,52.192 19.710,51.658 20.292 M47.500 24.417 C 45.714 26.204,44.291 27.667,44.337 27.667 C 44.382 27.667,45.881 26.204,47.667 24.417 C 49.452 22.629,50.876 21.167,50.830 21.167 C 50.784 21.167,49.286 22.629,47.500 24.417 M264.083 33.000 C 266.374 35.292,268.285 37.167,268.331 37.167 C 268.377 37.167,266.540 35.292,264.250 33.000 C 261.960 30.708,260.048 28.833,260.003 28.833 C 259.957 28.833,261.793 30.708,264.083 33.000 M269.000 37.917 C 269.311 38.237,269.603 38.500,269.649 38.500 C 269.695 38.500,269.478 38.237,269.167 37.917 C 268.856 37.596,268.564 37.333,268.518 37.333 C 268.472 37.333,268.689 37.596,269.000 37.917 M333.246 68.750 C 333.246 76.358,333.267 79.495,333.292 75.721 C 333.317 71.946,333.317 65.721,333.292 61.887 C 333.267 58.054,333.246 61.142,333.246 68.750 M49.073 67.875 L 48.583 68.417 49.125 67.927 C 49.423 67.658,49.667 67.414,49.667 67.385 C 49.667 67.257,49.529 67.370,49.073 67.875 M47.658 69.292 L 47.083 69.917 47.708 69.342 C 48.052 69.026,48.333 68.745,48.333 68.717 C 48.333 68.590,48.192 68.710,47.658 69.292 M46.240 70.708 L 45.750 71.250 46.292 70.760 C 46.797 70.304,46.910 70.167,46.781 70.167 C 46.752 70.167,46.509 70.410,46.240 70.708 M44.824 72.125 L 44.250 72.750 44.875 72.176 C 45.219 71.860,45.500 71.578,45.500 71.551 C 45.500 71.423,45.359 71.543,44.824 72.125 M43.406 73.542 L 42.917 74.083 43.458 73.594 C 43.963 73.138,44.077 73.000,43.948 73.000 C 43.919 73.000,43.675 73.244,43.406 73.542 M41.991 74.958 L 41.417 75.583 42.042 75.009 C 42.623 74.474,42.743 74.333,42.616 74.333 C 42.588 74.333,42.307 74.615,41.991 74.958 M40.573 76.375 L 40.083 76.917 40.625 76.427 C 41.130 75.971,41.243 75.833,41.115 75.833 C 41.086 75.833,40.842 76.077,40.573 76.375 M39.073 77.875 L 38.583 78.417 39.125 77.927 C 39.630 77.471,39.743 77.333,39.615 77.333 C 39.586 77.333,39.342 77.577,39.073 77.875 M37.658 79.292 L 37.083 79.917 37.708 79.342 C 38.290 78.808,38.410 78.667,38.283 78.667 C 38.255 78.667,37.974 78.948,37.658 79.292 M36.240 80.708 L 35.750 81.250 36.292 80.760 C 36.797 80.304,36.910 80.167,36.781 80.167 C 36.752 80.167,36.509 80.410,36.240 80.708 M34.824 82.125 L 34.250 82.750 34.875 82.176 C 35.457 81.641,35.577 81.500,35.449 81.500 C 35.422 81.500,35.140 81.781,34.824 82.125 M33.406 83.542 L 32.917 84.083 33.458 83.594 C 33.756 83.325,34.000 83.081,34.000 83.052 C 34.000 82.923,33.862 83.037,33.406 83.542 M31.991 84.958 L 31.417 85.583 32.042 85.009 C 32.623 84.474,32.743 84.333,32.616 84.333 C 32.588 84.333,32.307 84.615,31.991 84.958 M30.491 86.458 L 29.917 87.083 30.542 86.509 C 31.123 85.974,31.243 85.833,31.116 85.833 C 31.088 85.833,30.807 86.115,30.491 86.458 M29.073 87.875 L 28.583 88.417 29.125 87.927 C 29.630 87.471,29.743 87.333,29.615 87.333 C 29.586 87.333,29.342 87.577,29.073 87.875 M27.658 89.292 L 27.083 89.917 27.708 89.342 C 28.290 88.808,28.410 88.667,28.283 88.667 C 28.255 88.667,27.974 88.948,27.658 89.292 M26.240 90.708 L 25.750 91.250 26.292 90.760 C 26.797 90.304,26.910 90.167,26.781 90.167 C 26.752 90.167,26.509 90.410,26.240 90.708 M24.824 92.125 L 24.250 92.750 24.875 92.176 C 25.457 91.641,25.577 91.500,25.449 91.500 C 25.422 91.500,25.140 91.781,24.824 92.125 M23.406 93.542 L 22.917 94.083 23.458 93.594 C 23.963 93.138,24.077 93.000,23.948 93.000 C 23.919 93.000,23.675 93.244,23.406 93.542 " stroke="none" fill="#c4ece4" fill-rule="evenodd"></path><path id="path3" d="M168.913 13.750 C 168.913 21.358,168.933 24.495,168.958 20.721 C 168.983 16.946,168.983 10.721,168.958 6.887 C 168.933 3.054,168.913 6.142,168.913 13.750 M231.247 19.250 C 231.247 29.792,231.267 34.080,231.292 28.779 C 231.316 23.478,231.316 14.853,231.292 9.612 C 231.267 4.371,231.247 8.708,231.247 19.250 M70.821 0.939 C 70.449 1.343,70.445 1.364,70.772 1.194 C 70.968 1.092,71.171 0.895,71.225 0.755 C 71.362 0.399,71.285 0.434,70.821 0.939 M60.821 10.939 C 60.449 11.343,60.445 11.364,60.772 11.194 C 60.968 11.092,61.171 10.895,61.225 10.755 C 61.362 10.399,61.285 10.434,60.821 10.939 M252.000 20.750 C 252.311 21.071,252.603 21.333,252.649 21.333 C 252.695 21.333,252.478 21.071,252.167 20.750 C 251.856 20.429,251.564 20.167,251.518 20.167 C 251.472 20.167,251.689 20.429,252.000 20.750 M50.821 20.939 C 50.449 21.343,50.445 21.364,50.772 21.194 C 50.968 21.092,51.171 20.895,51.225 20.755 C 51.362 20.399,51.285 20.434,50.821 20.939 M253.417 22.167 C 253.775 22.533,254.105 22.833,254.151 22.833 C 254.197 22.833,253.941 22.533,253.583 22.167 C 253.225 21.800,252.895 21.500,252.849 21.500 C 252.803 21.500,253.059 21.800,253.417 22.167 M254.833 23.583 C 255.144 23.904,255.436 24.167,255.482 24.167 C 255.528 24.167,255.311 23.904,255.000 23.583 C 254.689 23.262,254.397 23.000,254.351 23.000 C 254.305 23.000,254.522 23.262,254.833 23.583 M256.250 25.000 C 256.608 25.367,256.938 25.667,256.984 25.667 C 257.030 25.667,256.775 25.367,256.417 25.000 C 256.059 24.633,255.728 24.333,255.682 24.333 C 255.637 24.333,255.892 24.633,256.250 25.000 M257.667 26.417 C 257.978 26.738,258.270 27.000,258.315 27.000 C 258.361 27.000,258.144 26.738,257.833 26.417 C 257.522 26.096,257.230 25.833,257.185 25.833 C 257.139 25.833,257.356 26.096,257.667 26.417 M259.083 27.833 C 259.441 28.200,259.772 28.500,259.818 28.500 C 259.863 28.500,259.608 28.200,259.250 27.833 C 258.892 27.467,258.562 27.167,258.516 27.167 C 258.470 27.167,258.725 27.467,259.083 27.833 M108.708 27.458 C 112.535 27.483,118.798 27.483,122.625 27.458 C 126.452 27.433,123.321 27.413,115.667 27.413 C 108.013 27.413,104.881 27.433,108.708 27.458 M312.471 27.458 C 316.351 27.483,322.651 27.483,326.471 27.458 C 330.291 27.433,327.117 27.413,319.417 27.413 C 311.717 27.413,308.591 27.433,312.471 27.458 M260.583 29.333 C 260.941 29.700,261.272 30.000,261.318 30.000 C 261.363 30.000,261.108 29.700,260.750 29.333 C 260.392 28.967,260.062 28.667,260.016 28.667 C 259.970 28.667,260.225 28.967,260.583 29.333 M262.000 30.750 C 262.311 31.071,262.603 31.333,262.649 31.333 C 262.695 31.333,262.478 31.071,262.167 30.750 C 261.856 30.429,261.564 30.167,261.518 30.167 C 261.472 30.167,261.689 30.429,262.000 30.750 M263.417 32.167 C 263.775 32.533,264.105 32.833,264.151 32.833 C 264.197 32.833,263.941 32.533,263.583 32.167 C 263.225 31.800,262.895 31.500,262.849 31.500 C 262.803 31.500,263.059 31.800,263.417 32.167 M264.833 33.583 C 265.144 33.904,265.436 34.167,265.482 34.167 C 265.528 34.167,265.311 33.904,265.000 33.583 C 264.689 33.262,264.397 33.000,264.351 33.000 C 264.305 33.000,264.522 33.262,264.833 33.583 M266.250 35.000 C 266.608 35.367,266.938 35.667,266.984 35.667 C 267.030 35.667,266.775 35.367,266.417 35.000 C 266.059 34.633,265.728 34.333,265.682 34.333 C 265.637 34.333,265.892 34.633,266.250 35.000 M267.667 36.417 C 267.978 36.737,268.270 37.000,268.315 37.000 C 268.361 37.000,268.144 36.737,267.833 36.417 C 267.522 36.096,267.230 35.833,267.185 35.833 C 267.139 35.833,267.356 36.096,267.667 36.417 M269.083 37.833 C 269.441 38.200,269.772 38.500,269.818 38.500 C 269.863 38.500,269.608 38.200,269.250 37.833 C 268.892 37.467,268.562 37.167,268.516 37.167 C 268.470 37.167,268.725 37.467,269.083 37.833 M379.458 55.125 C 383.240 55.150,389.427 55.150,393.208 55.125 C 396.990 55.100,393.896 55.080,386.333 55.080 C 378.771 55.080,375.677 55.100,379.458 55.125 M108.708 66.958 C 112.535 66.983,118.798 66.983,122.625 66.958 C 126.452 66.933,123.321 66.913,115.667 66.913 C 108.013 66.913,104.881 66.933,108.708 66.958 M175.721 66.958 C 179.555 66.983,185.780 66.983,189.554 66.958 C 193.329 66.933,190.192 66.913,182.583 66.913 C 174.975 66.913,171.887 66.933,175.721 66.958 M45.749 71.375 L 41.417 75.750 45.792 71.418 C 48.198 69.035,50.167 67.066,50.167 67.043 C 50.167 66.925,49.775 67.309,45.749 71.375 M36.332 80.792 L 31.417 85.750 36.375 80.834 C 39.102 78.131,41.333 75.900,41.333 75.876 C 41.333 75.758,40.900 76.184,36.332 80.792 M26.999 90.125 L 22.750 94.417 27.042 90.168 C 29.402 87.831,31.333 85.900,31.333 85.876 C 31.333 85.758,30.947 86.137,26.999 90.125 " stroke="none" fill="#dcf4ec" fill-rule="evenodd"></path><path id="path4" d="" stroke="none" fill="#c8f0dc" fill-rule="evenodd"></path></g></svg>